<svg xmlns="http://www.w3.org/2000/svg" width="21" height="24" viewBox="0 0 21 24"><g><g><path fill="#2d7238" d="M19.604 18.15c.427.559.612 1.183.539 1.803-.073.616-.394 1.178-.932 1.635-.234.198-.471.386-.702.563-.34.264-.663.512-.95.792-.006.013-.017.016-.022.024-.83.732-1.814 1.024-2.926.882-.096-.013-.202-.032-.302-.048-1.64-.318-3.042-1.149-4.085-1.833-2.727-1.82-5.021-4.2-6.821-7.075C1.92 12.507.995 10.345.473 8.066.26 7.133.007 5.728.295 4.287a3.684 3.684 0 0 1 1.32-2.185L3.455.6l.011-.01C4.005.173 4.603-.01 5.191.065c.587.074 1.116.4 1.526.94.278.336.544.693.796 1.042.126.18.26.359.392.53l1.153 1.53c.887 1.17.726 2.527-.41 3.445-.15.122-.302.252-.454.373-.401.33-.813.673-1.252.993.214.71.54 1.429 1.048 2.288 1.055 1.74 2.206 3.128 3.52 4.242.13.111.283.216.446.33.113.075.23.158.347.245l1.708-1.376c.547-.448 1.146-.633 1.738-.56.598.075 1.13.418 1.537.978zm-1.036.824l-2.328-3.086c-.005-.003-.005-.003-.009-.008-.13-.19-.352-.414-.65-.457-.304-.032-.588.137-.772.286l-1.85 1.495c-.091.075-.372.305-.772.253a1.019 1.019 0 0 1-.462-.188c-.018-.008-.036-.028-.054-.04a6.091 6.091 0 0 0-.445-.325 6.692 6.692 0 0 1-.553-.408c-1.426-1.208-2.67-2.709-3.799-4.575l-.004-.004c-.618-1.055-1.004-1.923-1.244-2.823l-.01-.048c-.052-.293-.08-.724.385-1.102.006-.011.017-.014.028-.018.465-.336.897-.688 1.353-1.063.156-.122.308-.249.465-.38.573-.46.63-.95.183-1.543L6.876 3.416c-.134-.185-.27-.366-.4-.544a21.652 21.652 0 0 0-.76-1c-.005-.01-.01-.011-.013-.02-.136-.177-.359-.401-.662-.44-.246-.028-.51.062-.774.264L2.423 3.165c-.45.362-.723.82-.84 1.398-.181.904-.132 1.886.169 3.189.486 2.127 1.36 4.158 2.758 6.419 1.698 2.706 3.861 4.952 6.426 6.663.938.621 2.199 1.366 3.618 1.644.071.012.149.022.22.034.752.093 1.355-.085 1.906-.566a13.62 13.62 0 0 1 1.048-.878 16.482 16.482 0 0 0 .66-.534c.553-.465.615-.986.18-1.56zm-.18 1.56l-.002.002.001-.002z"/></g></g></svg>