<svg xmlns="http://www.w3.org/2000/svg" width="19" height="23" viewBox="0 0 19 23"><g><g><path fill="#2d7238" d="M5.903 10.931C4.19 8.864 4.475 5.321 4.506 4.984 4.617 2.425 5.756 1.21 6.69.644 7.62.077 8.59-.01 9.083-.01h.075c.899.022 1.704.247 2.393.673.925.568 2.046 1.781 2.157 4.32.031.337.316 3.88-1.396 5.947-.779.939-1.833 1.43-3.136 1.457h-.142c-1.303-.027-2.358-.518-3.131-1.457zm.894-.855c.556.677 1.307 1.017 2.286 1.024h.044c.983-.007 1.73-.347 2.29-1.024 1.415-1.702 1.104-4.941 1.1-4.973-.005-.01-.005-.026-.005-.04-.138-3.229-2.18-3.752-3.38-3.78h-.054c-.97 0-3.233.37-3.38 3.78 0 .009-.004.024-.004.04-.005.024-.307 3.28 1.103 4.973zm11.235 10.338a.61.61 0 0 1-.232.3c-.133.091-3.331 2.279-8.682 2.279-5.35 0-8.548-2.183-8.682-2.278a.586.586 0 0 1-.231-.3c-.236-.639-.231-1.909-.227-2.155v-.015c.005-.038.005-.074.005-.12.026-.94.084-3.142 2.015-3.856.013-.002.026-.007.044-.013 2.015-.548 3.674-1.783 3.692-1.798a.57.57 0 0 1 .836.158c.191.29.125.69-.147.89-.076.055-1.846 1.38-4.06 1.989-1.037.397-1.153 1.582-1.184 2.668 0 .044-.004.082-.004.12-.01.425.022 1.09.093 1.47.725.44 3.567 1.958 7.846 1.958 4.296 0 7.12-1.513 7.841-1.952.071-.379.098-1.044.094-1.471-.005-.039-.005-.078-.005-.117-.03-1.088-.146-2.275-1.183-2.672-2.215-.609-3.985-1.929-4.06-1.988a.668.668 0 0 1-.147-.893.575.575 0 0 1 .836-.156c.017.015 1.685 1.25 3.691 1.8.014.005.031.007.045.012 1.93.709 1.988 2.911 2.015 3.856 0 .042.004.08.004.12v.016c.005.245.01 1.517-.213 2.148z"/></g></g></svg>